<?xml version="1.0" standalone="no"?>
<!DOCTYPE svg PUBLIC "-//W3C//DTD SVG 1.1//EN" "http://www.w3.org/Graphics/SVG/1.1/DTD/svg11.dtd">
<svg xmlns="http://www.w3.org/2000/svg" viewBox="0 0 340.23 230.33" width="340.2300109863281" height="230.3300018310547">
  <g id="fe499c84-d3ed-431c-b3ed-ab1a14f7c032" data-name="Layer 2">
    <g id="af5f2caf-c1c4-4bbe-9a83-9b8ff779444f" data-name="Layer 1">
      <g>
        <path d="M325.29,100.4,170,172.29,15,100.57C-5,91.35-5,76.26,14.94,67L150.27,4.4a47.54,47.54,0,0,1,40,0l135,62.47C345.21,76.09,345.21,91.18,325.29,100.4Z" style="fill: #0a001a"/>
        <path d="M169.61,187.07l152.83-75.73A10.91,10.91,0,0,1,338.2,121l1,98.25a10.92,10.92,0,0,1-10.79,11l-4.17.05a10.91,10.91,0,0,1-11-10.91V145.34L175,213.27a10.9,10.9,0,0,1-9.66,0L7.26,134.88a10.91,10.91,0,0,1-6.06-9.77V121.2A10.91,10.91,0,0,1,17,111.43l152.65,75.64Z" style="fill: #00fff6"/>
      </g>
    </g>
  </g>
</svg>